# xmcd
#
# Track frame offsets:
#	150
#	10438
#	39902
#	60701
#	88385
#	101405
#	124865
#	164185
#	186443
#	219686
#	238252
#	269050
#	284151
#	316371
#
# Disc length: 4755 seconds
#
# Revision: 2
# Processed by: cddbd v1.5.1PL0 Copyright (c) Steve Scherf et al.
# Submitted via: AudioConverter v4.5 Copyright (c) AC Productions Ltd
#
DISCID=e512910e
DTITLE=Various Artist - Classic Jazz - Jazz Grooves - Disc 1
DYEAR=2004
DGENRE=Jazz
TTITLE0=Jimmy Smith - Organ Grinder's Swing
TTITLE1=Bernhard Purdie - Purdie Good
TTITLE2=Blackbyrds - Rock Creek Park
TTITLE3=Grover Washington Jr - Black Frost
TTITLE4=Weather Report - Teen Town
TTITLE5=Lonnie Liston Smith - Expansions
TTITLE6=Azymuth - The Prisoner
TTITLE7=Chick Corea - Captain Marvel
TTITLE8=Freddie Hubbard - Delphia
TTITLE9=Brother Jack McDuff - Butter For Yo' Popcorn
TTITLE10=Dizzy Gillespie With Lalo Schifrin - Unicorn
TTITLE11=Eddie Harris - Is It In
TTITLE12=Lee Ritenour - Captain Fingers
TTITLE13=Deodato - Superstrut
EXTD=YEAR: 2004
EXTT0=
EXTT1=
EXTT2=
EXTT3=
EXTT4=
EXTT5=
EXTT6=
EXTT7=
EXTT8=
EXTT9=
EXTT10=
EXTT11=
EXTT12=
EXTT13=
PLAYORDER=
